<svg width="614" height="134" viewBox="0 0 614 134" fill="none" xmlns="http://www.w3.org/2000/svg">
<path d="M35.6978 54.5H39.4478V84.5H35.6978V70.75H8.19775V84.5H4.44775V54.5H8.19775V67.625H35.6978V54.5ZM54.9478 84.5V54.5H84.9478V57.625H58.6978V67.625H83.6978V70.75H58.6978V81.375H84.9478V84.5H54.9478ZM97.9478 84.5V54.5H101.698V81.375H125.448V84.5H97.9478ZM142.198 57V84.5H138.448V54.5H144.698L162.178 80.75L179.659 54.5H185.635V84.5H181.885V57.4102L164.073 84.5H160.284L142.198 57ZM404.292 67.625C406.349 67.625 408.113 67.7096 409.584 67.8789C411.056 68.0482 412.293 68.3021 413.295 68.6406C414.311 68.9662 415.118 69.3763 415.717 69.8711C416.316 70.3659 416.778 70.9323 417.104 71.5703C417.43 72.1953 417.638 72.8984 417.729 73.6797C417.833 74.4609 417.885 75.3073 417.885 76.2188C417.885 77.1302 417.801 77.9896 417.631 78.7969C417.475 79.5912 417.189 80.3203 416.772 80.9844C416.355 81.6484 415.789 82.2409 415.073 82.7617C414.357 83.2826 413.445 83.7253 412.338 84.0899C411.232 84.4544 409.897 84.7279 408.334 84.9102C406.785 85.1055 404.969 85.2031 402.885 85.2031H397.885C396.01 85.2031 394.37 85.1315 392.963 84.9883C391.557 84.8451 390.346 84.6302 389.331 84.3438C388.315 84.0443 387.475 83.6732 386.811 83.2305C386.147 82.7747 385.613 82.2474 385.209 81.6484C384.819 81.0365 384.545 80.3464 384.389 79.5781C384.233 78.7969 384.155 77.9375 384.155 77H387.905C387.905 78.1719 388.074 79.0899 388.413 79.7539C388.751 80.418 389.311 80.9193 390.092 81.2578C390.874 81.5833 391.896 81.7917 393.159 81.8828C394.435 81.9609 396.01 82 397.885 82H402.885C405.073 82 406.889 81.8958 408.334 81.6875C409.78 81.4792 410.932 81.1471 411.792 80.6914C412.651 80.2357 413.256 79.6432 413.608 78.9141C413.959 78.1719 414.135 77.2734 414.135 76.2188C414.135 75.1641 414.012 74.2852 413.764 73.582C413.53 72.8789 413.055 72.319 412.338 71.9024C411.635 71.4857 410.639 71.1927 409.35 71.0234C408.061 70.8412 406.375 70.75 404.292 70.75H399.135C396.844 70.75 394.877 70.6654 393.237 70.4961C391.609 70.3268 390.242 70.0859 389.135 69.7734C388.028 69.4479 387.143 69.0508 386.479 68.582C385.815 68.1003 385.307 67.5534 384.956 66.9414C384.617 66.3294 384.396 65.6524 384.292 64.9102C384.187 64.155 384.135 63.3412 384.135 62.4688C384.135 61.5573 384.213 60.7109 384.37 59.9297C384.539 59.1484 384.845 58.4453 385.288 57.8203C385.73 57.1823 386.336 56.6159 387.104 56.1211C387.872 55.6263 388.855 55.2162 390.053 54.8906C391.264 54.5521 392.716 54.2982 394.409 54.1289C396.101 53.9596 398.094 53.875 400.385 53.875H404.135C406.01 53.875 407.651 53.9466 409.057 54.0899C410.463 54.2201 411.674 54.4349 412.69 54.7344C413.706 55.0208 414.545 55.3854 415.209 55.8281C415.887 56.2578 416.42 56.7787 416.811 57.3906C417.215 57.9896 417.495 58.6732 417.651 59.4414C417.807 60.2096 417.885 61.0625 417.885 62H414.135C414.135 60.8281 413.966 59.9102 413.627 59.2461C413.289 58.582 412.729 58.0872 411.948 57.7617C411.167 57.4232 410.138 57.2149 408.862 57.1367C407.586 57.0456 406.01 57 404.135 57H400.385C397.885 57 395.828 57.0912 394.213 57.2734C392.599 57.4427 391.323 57.7357 390.385 58.1524C389.448 58.569 388.797 59.1289 388.432 59.832C388.068 60.5352 387.885 61.4141 387.885 62.4688C387.885 63.1198 387.931 63.6992 388.022 64.207C388.113 64.7149 388.295 65.1641 388.569 65.5547C388.855 65.9323 389.252 66.2513 389.76 66.5117C390.268 66.7721 390.939 66.987 391.772 67.1563C392.605 67.3255 393.621 67.4492 394.819 67.5274C396.03 67.5925 397.469 67.625 399.135 67.625H404.292ZM463.385 54.5H467.135V84.5H463.385V70.75H435.885V84.5H432.135V54.5H435.885V67.625H463.385V54.5ZM512.01 77.625H488.26L484.51 84.5H480.135L497.635 54.5H502.635L520.135 84.5H515.76L512.01 77.625ZM510.135 74.5L500.135 57L490.135 74.5H510.135ZM567.51 84.5H563.76V78.875C563.76 77.9635 563.741 77.1823 563.702 76.5313C563.676 75.8672 563.565 75.3008 563.37 74.832C563.187 74.3633 562.894 73.9857 562.491 73.6992C562.087 73.4128 561.514 73.1914 560.772 73.0352C560.03 72.8789 559.086 72.7747 557.94 72.7227C556.807 72.6576 555.407 72.625 553.741 72.625H536.885V84.5H533.135V54.5H554.366C556.657 54.5 558.584 54.5846 560.147 54.7539C561.722 54.9102 563.018 55.151 564.034 55.4766C565.062 55.8021 565.85 56.2057 566.397 56.6875C566.957 57.1693 567.361 57.7357 567.608 58.3867C567.868 59.0378 568.018 59.7669 568.057 60.5742C568.109 61.3815 568.135 62.2734 568.135 63.25C568.135 64.5 568.044 65.6003 567.862 66.5508C567.693 67.4883 567.4 68.2891 566.983 68.9531C566.566 69.6172 566.013 70.151 565.323 70.5547C564.633 70.9453 563.767 71.2188 562.725 71.375C563.767 71.5313 564.6 71.8047 565.225 72.1953C565.85 72.5859 566.332 73.0938 566.67 73.7188C567.009 74.3438 567.23 75.0859 567.334 75.9453C567.452 76.8047 567.51 77.7813 567.51 78.875V84.5ZM536.885 69.5H554.366C556.032 69.5 557.432 69.474 558.565 69.4219C559.711 69.3568 560.655 69.2461 561.397 69.0899C562.139 68.9336 562.712 68.7122 563.116 68.4258C563.519 68.1393 563.812 67.7617 563.995 67.293C564.19 66.8242 564.301 66.2643 564.327 65.6133C564.366 64.9492 564.385 64.1615 564.385 63.25C564.385 62.4037 564.366 61.6745 564.327 61.0625C564.301 60.4505 564.19 59.9362 563.995 59.5195C563.812 59.1029 563.519 58.7708 563.116 58.5234C562.712 58.276 562.139 58.0872 561.397 57.957C560.655 57.8138 559.711 57.7227 558.565 57.6836C557.432 57.6445 556.032 57.625 554.366 57.625H536.885V69.5ZM582.385 84.5V54.5H612.385V57.625H586.135V67.625H611.135V70.75H586.135V81.375H612.385V84.5H582.385Z" fill="#091A38"/>
<path fill-rule="evenodd" clip-rule="evenodd" d="M290.686 17.9962C293.916 16.5192 296.16 13.2594 296.16 9.47545C296.16 4.30372 291.968 0.111198 286.796 0.111198C281.624 0.111198 277.432 4.30372 277.432 9.47545C277.432 13.2595 279.676 16.5193 282.907 17.9962V20.9682C273.024 21.7695 263.996 25.5973 256.753 31.5237C256.124 31.3594 255.507 31.2732 254.918 31.2685C254.912 29.0395 253.766 26.4089 251.642 24.2351C248.217 20.7309 243.548 19.7407 241.211 22.0236C238.875 24.3065 239.757 28.9979 243.182 32.5021C245.343 34.7138 248 35.9241 250.254 35.942C250.256 36.5092 250.331 37.1024 250.477 37.7074C244.413 44.9018 240.448 53.9232 239.524 63.8278C239.105 64.1013 238.726 64.4029 238.395 64.7281C236.816 63.1554 234.146 62.1039 231.107 62.0669C226.208 62.0073 222.204 64.6066 222.164 67.8728C222.124 71.1389 226.064 73.8349 230.963 73.8946C234.055 73.9322 236.791 72.9106 238.398 71.3307C238.715 71.647 239.077 71.9422 239.477 72.2124C240.305 82.3344 244.308 91.5577 250.488 98.8843C250.413 99.2993 250.373 99.7067 250.369 100.102C248.14 100.107 245.509 101.251 243.334 103.374C239.827 106.796 238.834 111.465 241.116 113.802C243.397 116.14 248.089 115.261 251.595 111.839C253.808 109.679 255.02 107.022 255.04 104.769C255.439 104.768 255.852 104.73 256.272 104.657C263.389 110.637 272.287 114.566 282.055 115.534C282.454 116.363 282.948 117.082 283.513 117.657C281.941 119.237 280.889 121.907 280.852 124.946C280.793 129.845 283.392 133.849 286.658 133.889C289.924 133.928 292.62 129.989 292.68 125.09C292.718 121.998 291.696 119.262 290.116 117.655C290.689 117.079 291.193 116.358 291.604 115.527C301.464 114.536 310.434 110.528 317.577 104.44C318.148 104.577 318.708 104.649 319.246 104.653C319.252 106.883 320.398 109.513 322.522 111.687C325.946 115.191 330.616 116.181 332.952 113.898C335.288 111.615 334.406 106.924 330.982 103.42C328.821 101.208 326.163 99.9979 323.91 99.98C323.908 99.4046 323.831 98.8024 323.68 98.1883C329.491 91.0281 333.26 82.1425 334.097 72.4192C334.737 72.0663 335.301 71.6537 335.769 71.1938C337.348 72.7666 340.018 73.818 343.057 73.855C347.956 73.9147 351.96 71.3153 352 68.0492C352.039 64.7831 348.1 62.087 343.201 62.0274C340.109 61.9897 337.373 63.0113 335.766 64.5913C335.279 64.1064 334.688 63.6711 334.015 63.2997C333.02 53.7683 329.204 45.0757 323.418 38.0712C323.661 37.2993 323.788 36.5393 323.795 35.8203C326.024 35.8154 328.655 34.6711 330.83 32.5483C334.336 29.1262 335.329 24.4571 333.048 22.1195C330.767 19.7819 326.075 20.661 322.568 24.0831C320.355 26.243 319.143 28.8996 319.124 31.1533C318.394 31.1549 317.62 31.2788 316.834 31.5193C309.591 25.5955 300.566 21.7693 290.686 20.9682V17.9962ZM286.796 101.311C305.033 101.311 319.817 86.5267 319.817 68.2895C319.817 50.0524 305.033 35.2682 286.796 35.2682C268.559 35.2682 253.775 50.0524 253.775 68.2895C253.775 86.5267 268.559 101.311 286.796 101.311Z" fill="black"/>
<path fill-rule="evenodd" clip-rule="evenodd" d="M317.002 71.7639C316.463 76.0489 315.024 80.154 312.797 83.8168C312.508 84.2916 312.206 84.759 311.891 85.2184C311.396 85.9402 310.869 86.6423 310.311 87.3223L296.655 76.1164C294.349 79.0169 290.79 80.8765 286.797 80.8765C279.845 80.8765 274.21 75.2411 274.21 68.2896C274.21 61.338 279.845 55.7026 286.797 55.7026C286.807 55.7026 286.817 55.7027 286.827 55.7027L287.004 37.4244C287.814 37.4322 288.621 37.4722 289.423 37.5439C289.493 37.5501 289.562 37.5565 289.631 37.5631C294.462 38.0277 299.127 39.6389 303.229 42.2787C308.072 45.3945 311.934 49.8162 314.371 55.0334C316.808 60.2506 317.72 66.0506 317.002 71.7639ZM292.155 68.2896C292.155 71.2489 289.756 73.6479 286.797 73.6479C283.838 73.6479 281.439 71.2489 281.439 68.2896C281.439 65.3302 283.838 62.9312 286.797 62.9312C289.756 62.9312 292.155 65.3302 292.155 68.2896Z" fill="#E8A017"/>
</svg>
