<svg width="23" height="24" viewBox="0 0 23 24" fill="none" xmlns="http://www.w3.org/2000/svg">
<path d="M12.6004 1.70817C12.6063 1.66287 12.6093 1.61669 12.6093 1.56979C12.6093 0.978963 12.1304 0.5 11.5395 0.5C10.9487 0.5 10.4697 0.978963 10.4697 1.56979C10.4697 1.61669 10.4727 1.66287 10.4786 1.70817H10.4697L10.498 1.8152C10.5025 1.83443 10.5075 1.85345 10.5131 1.87225L11.0871 4.04469H12.0345L12.6093 1.70817H12.6004Z" fill="black"/>
<path d="M10.4787 21.95C10.4728 21.9953 10.4698 22.0415 10.4698 22.0884C10.4698 22.6792 10.9488 23.1582 11.5396 23.1582C12.1304 23.1582 12.6094 22.6792 12.6094 22.0884C12.6094 22.0415 12.6064 21.9953 12.6005 21.95L12.6094 21.95L12.5811 21.843C12.5766 21.8238 12.5716 21.8048 12.566 21.786L11.992 19.6135L11.0446 19.6135L10.4698 21.95L10.4787 21.95Z" fill="black"/>
<path d="M21.6605 12.89C21.7058 12.8958 21.752 12.8989 21.7989 12.8989C22.3897 12.8989 22.8687 12.4199 22.8687 11.8291C22.8687 11.2382 22.3897 10.7593 21.7989 10.7593C21.752 10.7593 21.7058 10.7623 21.6605 10.7681L21.6605 10.7593L21.5534 10.7876C21.5342 10.7921 21.5152 10.7971 21.4964 10.8026L19.324 11.3767L19.324 12.324L21.6605 12.8989L21.6605 12.89Z" fill="black"/>
<path d="M1.41862 10.7682C1.37332 10.7624 1.32714 10.7593 1.28024 10.7593C0.689412 10.7593 0.210449 11.2383 0.210449 11.8291C0.210449 12.42 0.689412 12.8989 1.28024 12.8989C1.32713 12.8989 1.37332 12.8959 1.41862 12.8901L1.41862 12.8989L1.52565 12.8706C1.54487 12.8661 1.5639 12.8611 1.5827 12.8556L3.75514 12.2815L3.75514 11.3342L1.41862 10.7593L1.41862 10.7682Z" fill="black"/>
<path d="M5.13317 3.92237C5.10528 3.8862 5.07475 3.85141 5.04159 3.81825C4.62381 3.40047 3.94645 3.40047 3.52867 3.81825C3.11089 4.23603 3.11089 4.91338 3.52867 5.33116C3.56183 5.36432 3.59663 5.39485 3.63279 5.42274L3.62652 5.42901L3.7222 5.4847C3.73899 5.4951 3.75599 5.50499 3.7732 5.51438L5.71525 6.64462L6.38515 5.97472L5.13944 3.9161L5.13317 3.92237Z" fill="black"/>
<path d="M17.9459 19.7358C17.9738 19.772 18.0044 19.8068 18.0375 19.84C18.4553 20.2577 19.1326 20.2577 19.5504 19.84C19.9682 19.4222 19.9682 18.7448 19.5504 18.327C19.5173 18.2939 19.4825 18.2634 19.4463 18.2355L19.4526 18.2292L19.3569 18.1735C19.3401 18.1631 19.3231 18.1532 19.3059 18.1438L17.3639 17.0136L16.694 17.6835L17.9397 19.7421L17.9459 19.7358Z" fill="black"/>
<path d="M19.4463 5.42248C19.4825 5.39458 19.5172 5.36406 19.5504 5.3309C19.9682 4.91312 19.9682 4.23576 19.5504 3.81798C19.1326 3.4002 18.4553 3.4002 18.0375 3.81798C18.0043 3.85114 17.9738 3.88593 17.9459 3.9221L17.9396 3.91583L17.884 4.01151C17.8736 4.02829 17.8637 4.0453 17.8543 4.06251L16.724 6.00456L17.3939 6.67446L19.4526 5.42875L19.4463 5.42248Z" fill="black"/>
<path d="M3.63282 18.2352C3.59665 18.2631 3.56186 18.2937 3.5287 18.3268C3.11092 18.7446 3.11092 19.422 3.5287 19.8397C3.94648 20.2575 4.62383 20.2575 5.04161 19.8397C5.07477 19.8066 5.1053 19.7718 5.13319 19.7356L5.13946 19.7419L5.19515 19.6462C5.20555 19.6294 5.21544 19.6124 5.22483 19.5952L6.35506 17.6532L5.68517 16.9833L3.62655 18.229L3.63282 18.2352Z" fill="black"/>
<path fill-rule="evenodd" clip-rule="evenodd" d="M18.4698 11.8293C18.4698 15.6568 15.367 18.7596 11.5395 18.7596C7.71196 18.7596 4.60913 15.6568 4.60913 11.8293C4.60913 8.00175 7.71196 4.89893 11.5395 4.89893V6.51748C9.4001 6.51793 7.38413 7.82055 6.57718 9.93871C5.53308 12.6794 6.90841 15.7475 9.64906 16.7916C12.3897 17.8357 15.4579 16.4604 16.502 13.7197C17.2705 11.7024 16.7282 9.50771 15.2954 8.07333L16.44 6.92878C17.6941 8.18293 18.4698 9.91551 18.4698 11.8293ZM16.44 6.92878C15.1403 5.62909 13.3775 4.89893 11.5395 4.89893C13.4532 4.89893 15.1858 5.67463 16.44 6.92878ZM15.2954 8.07333L11.5395 11.8293V6.51748C12.1682 6.51735 12.8076 6.62969 13.4301 6.86683C14.1534 7.14241 14.7817 7.55899 15.2954 8.07333Z" fill="black"/>
<path fill-rule="evenodd" clip-rule="evenodd" d="M9.74224 13.6245C9.171 13.3962 8.57318 13.2318 8.10625 13.2481C7.4611 13.2707 7.10141 13.3423 6.82893 13.4465C6.60583 13.5318 6.43455 13.6396 6.19499 13.7904C6.1327 13.8297 6.0658 13.8718 5.99217 13.9172L5.68677 13.4217C5.74727 13.3844 5.80597 13.3474 5.86374 13.3109C6.10991 13.1555 6.3394 13.0106 6.62108 12.9028C6.97749 12.7666 7.40854 12.6902 8.08591 12.6665C8.677 12.6458 9.36686 12.8477 9.9583 13.0841C10.5565 13.3233 11.0917 13.6134 11.3865 13.8023L11.0724 14.2923C10.8092 14.1236 10.3068 13.8502 9.74224 13.6245Z" fill="black"/>
<path fill-rule="evenodd" clip-rule="evenodd" d="M16.9185 13.4203C15.9273 12.677 14.7191 12.4398 13.4602 13.0156C13.1235 13.1697 12.7742 13.3911 12.3773 13.6557C12.2989 13.7079 12.2188 13.7618 12.1368 13.8169C11.8089 14.0373 11.4514 14.2776 11.0598 14.513C10.0738 15.1059 8.85548 15.6789 7.21485 15.9178L7.13098 15.3419C8.67385 15.1172 9.81865 14.5802 10.7599 14.0142C11.1376 13.7871 11.4799 13.5571 11.8068 13.3374C11.8902 13.2813 11.9727 13.2259 12.0544 13.1714C12.4513 12.9069 12.8348 12.6617 13.2181 12.4864C14.6947 11.8109 16.128 12.1 17.2677 12.9547L16.9185 13.4203Z" fill="black"/>
<path fill-rule="evenodd" clip-rule="evenodd" d="M11.5395 18.2941C15.11 18.2941 18.0043 15.3997 18.0043 11.8293C18.0043 8.25892 15.11 5.36453 11.5395 5.36453C7.96912 5.36453 5.07473 8.25892 5.07473 11.8293C5.07473 15.3997 7.96912 18.2941 11.5395 18.2941ZM11.5395 18.7597C15.3671 18.7597 18.4699 15.6569 18.4699 11.8293C18.4699 8.00178 15.3671 4.89893 11.5395 4.89893C7.71198 4.89893 4.60913 8.00178 4.60913 11.8293C4.60913 15.6569 7.71198 18.7597 11.5395 18.7597Z" fill="black"/>
</svg>
