<svg width="196" height="196" viewBox="0 0 196 196" fill="none" xmlns="http://www.w3.org/2000/svg">
<path d="M107.154 10.8795C107.204 10.4903 107.23 10.0935 107.23 9.69066C107.23 4.6148 103.115 0.5 98.0394 0.5C92.9636 0.5 88.8488 4.6148 88.8488 9.69066C88.8488 10.0935 88.8747 10.4903 88.9249 10.8795H88.8488L89.0917 11.799C89.1305 11.9641 89.1737 12.1275 89.2212 12.2891L94.1528 30.9526H102.292L107.23 10.8795H107.154Z" fill="black"/>
<path d="M88.9251 184.779C88.8748 185.168 88.8489 185.565 88.8489 185.968C88.8489 191.043 92.9637 195.158 98.0396 195.158C103.115 195.158 107.23 191.043 107.23 185.968C107.23 185.565 107.204 185.168 107.154 184.779L107.23 184.779L106.987 183.859C106.948 183.694 106.905 183.531 106.858 183.369L101.926 164.706L93.7872 164.706L88.8489 184.779L88.9251 184.779Z" fill="black"/>
<path d="M184.989 106.943C185.378 106.994 185.775 107.019 186.178 107.019C191.254 107.019 195.369 102.905 195.369 97.8288C195.369 92.753 191.254 88.6382 186.178 88.6382C185.775 88.6382 185.378 88.6641 184.989 88.7144L184.989 88.6382L184.07 88.8812C183.904 88.9199 183.741 88.9631 183.579 89.0107L164.916 93.9422L164.916 102.081L184.989 107.019L184.989 106.943Z" fill="black"/>
<path d="M11.0901 88.7144C10.7009 88.6641 10.3041 88.6382 9.90123 88.6382C4.82537 88.6382 0.710573 92.753 0.710572 97.8289C0.710572 102.905 4.82537 107.02 9.90123 107.02C10.3041 107.02 10.7009 106.994 11.0901 106.943L11.0901 107.02L12.0096 106.777C12.1747 106.738 12.3381 106.695 12.4997 106.647L31.1632 101.715L31.1632 93.5765L11.0901 88.6382L11.0901 88.7144Z" fill="black"/>
<path d="M43.0018 29.9016C42.7622 29.5909 42.4999 29.2919 42.2151 29.0071C38.6259 25.4179 32.8067 25.4179 29.2175 29.0071C25.6284 32.5963 25.6284 38.4155 29.2175 42.0046C29.5024 42.2895 29.8013 42.5518 30.112 42.7914L30.0582 42.8453L30.8802 43.3237C31.0243 43.413 31.1704 43.498 31.3183 43.5786L48.0025 53.2886L53.7577 47.5334L43.0557 29.8477L43.0018 29.9016Z" fill="black"/>
<path d="M153.077 165.757C153.317 166.067 153.579 166.366 153.864 166.651C157.453 170.24 163.272 170.24 166.861 166.651C170.451 163.062 170.451 157.243 166.861 153.654C166.577 153.369 166.278 153.106 165.967 152.867L166.021 152.813L165.199 152.335C165.055 152.245 164.909 152.16 164.761 152.08L148.076 142.37L142.321 148.125L153.023 165.81L153.077 165.757Z" fill="black"/>
<path d="M165.967 42.7911C166.278 42.5515 166.577 42.2892 166.862 42.0044C170.451 38.4152 170.451 32.596 166.862 29.0068C163.272 25.4177 157.453 25.4177 153.864 29.0068C153.579 29.2917 153.317 29.5906 153.077 29.9013L153.023 29.8475L152.545 30.6695C152.456 30.8136 152.371 30.9597 152.29 31.1076L142.58 47.7918L148.335 53.547L166.021 42.845L165.967 42.7911Z" fill="black"/>
<path d="M30.112 152.867C29.8013 153.106 29.5024 153.369 29.2175 153.654C25.6284 157.243 25.6284 163.062 29.2175 166.651C32.8067 170.24 38.6259 170.24 42.2151 166.651C42.4999 166.366 42.7622 166.067 43.0018 165.757L43.0557 165.81L43.5341 164.989C43.6235 164.844 43.7085 164.698 43.7891 164.55L53.499 147.866L47.7439 142.111L30.0582 152.813L30.112 152.867Z" fill="black"/>
<path fill-rule="evenodd" clip-rule="evenodd" d="M98.0394 157.368C65.1569 157.368 38.5004 130.711 38.5004 97.8286C38.5004 64.9461 65.1569 38.2896 98.0394 38.2896V52.1957C79.6596 52.1993 62.3401 63.3902 55.4074 81.5876C46.4375 105.133 58.253 131.491 81.7981 140.461C105.343 149.431 131.702 137.616 140.672 114.071C147.274 96.7398 142.615 77.8847 130.306 65.5618L140.14 55.7281C150.914 66.5026 157.578 81.3874 157.578 97.8286C157.578 130.711 130.922 157.368 98.0394 157.368ZM130.306 65.5618C125.893 61.1432 120.495 57.5644 114.281 55.197C108.933 53.1597 103.441 52.1946 98.0394 52.1957V97.8286L130.306 65.5618ZM139.979 55.5678C129.217 44.8876 114.399 38.2896 98.0394 38.2896C113.754 38.2896 128.829 44.5024 139.979 55.5678Z" fill="black"/>
<path fill-rule="evenodd" clip-rule="evenodd" d="M140.261 118.702C128.861 111.126 119.841 113.764 114.946 116.329C113.75 116.955 111.754 118.367 108.986 120.344C108.882 120.419 108.777 120.493 108.672 120.569C106.009 122.471 102.755 124.795 99.0787 127.213C91.4452 132.233 81.9057 137.714 71.8426 140.741L70.9785 137.868C80.6299 134.965 89.885 129.669 97.4302 124.707C101.058 122.321 104.27 120.026 106.937 118.121C107.039 118.048 107.141 117.975 107.242 117.903C109.917 115.992 112.125 114.419 113.554 113.671C119.159 110.735 129.389 107.874 141.922 116.204L140.261 118.702ZM58.6375 116.986C56.2657 117.75 55.1376 118.621 54.8409 118.974L52.5438 117.045C53.3595 116.073 55.0997 114.974 57.7175 114.13C60.3902 113.269 64.1108 112.63 69.0468 112.696C79.0151 112.828 87.5979 117.251 90.1139 119.024L88.3861 121.476C86.2408 119.965 78.2347 115.818 69.0071 115.695C64.345 115.634 60.9546 116.239 58.6375 116.986ZM125.308 124.115C120.235 124.563 115.076 125.705 110.974 127.911C101.694 132.902 92.6741 140.501 86.0578 147.117L83.9364 144.996C90.6682 138.264 99.9224 130.449 109.553 125.269C114.151 122.796 119.758 121.594 125.044 121.127C130.344 120.658 135.437 120.919 139.083 121.451L138.65 124.42C135.225 123.92 130.367 123.668 125.308 124.115ZM67.4172 124.916C62.8563 124.73 58.3579 124.887 56.0836 125.141L55.7505 122.16C58.217 121.884 62.8744 121.728 67.5393 121.919C69.8781 122.014 72.2474 122.197 74.3663 122.502C76.4589 122.804 78.4116 123.238 79.8576 123.878L78.6424 126.621C77.5777 126.15 75.9509 125.761 73.9386 125.472C71.9526 125.186 69.6914 125.009 67.4172 124.916ZM134.225 131.185C131.597 130.986 123.911 131.456 117.983 134.299C115.093 135.685 112.109 138.15 109.517 140.756C106.939 143.349 104.839 145.989 103.712 147.623L101.242 145.92C102.472 144.137 104.686 141.359 107.39 138.64C110.081 135.935 113.347 133.196 116.686 131.594C123.217 128.462 131.464 127.968 134.451 128.193L134.225 131.185Z" fill="black"/>
<path fill-rule="evenodd" clip-rule="evenodd" d="M82.5984 113.256C77.6908 111.294 72.5549 109.882 68.5435 110.022C63.001 110.216 59.9109 110.831 57.57 111.726C55.6533 112.459 54.1818 113.385 52.1237 114.681C51.5886 115.018 51.0139 115.38 50.3813 115.77L47.7576 111.513C48.2774 111.193 48.7816 110.875 49.278 110.561C51.3929 109.226 53.3643 107.981 55.7843 107.056C58.8462 105.885 62.5494 105.229 68.3688 105.025C73.4468 104.848 79.3735 106.582 84.4545 108.613C89.5934 110.668 94.1919 113.16 96.7239 114.783L94.026 118.992C91.7643 117.543 87.4481 115.195 82.5984 113.256Z" fill="black"/>
<path fill-rule="evenodd" clip-rule="evenodd" d="M144.25 111.5C135.735 105.114 125.355 103.076 114.54 108.023C111.647 109.347 108.646 111.249 105.236 113.522C104.563 113.971 103.875 114.433 103.171 114.907C100.353 116.8 97.2818 118.865 93.9178 120.887C85.447 125.981 74.9804 130.904 60.8857 132.956L60.1652 128.008C73.42 126.078 83.2551 121.465 91.3413 116.602C94.5863 114.651 97.5271 112.675 100.335 110.788C101.052 110.306 101.76 109.83 102.463 109.362C105.872 107.089 109.167 104.983 112.46 103.476C125.145 97.6736 137.459 100.157 147.25 107.5L144.25 111.5Z" fill="black"/>
<path fill-rule="evenodd" clip-rule="evenodd" d="M98.0396 153.369C128.713 153.369 153.579 128.503 153.579 97.8291C153.579 67.1555 128.713 42.2896 98.0396 42.2896C67.3659 42.2896 42.5 67.1555 42.5 97.8291C42.5 128.503 67.3659 153.369 98.0396 153.369ZM98.0396 157.369C130.922 157.369 157.579 130.712 157.579 97.8291C157.579 64.9463 130.922 38.2896 98.0396 38.2896C65.1568 38.2896 38.5 64.9463 38.5 97.8291C38.5 130.712 65.1568 157.369 98.0396 157.369Z" fill="black"/>
</svg>
