<svg width="674" height="116" viewBox="0 0 674 116" fill="none" xmlns="http://www.w3.org/2000/svg">
<path d="M181.487 40.0556H186.174V77.5556H181.487V60.3681H147.112V77.5556H142.424V40.0556H147.112V56.4619H181.487V40.0556ZM205.549 77.5556V40.0556H243.049V43.9619H210.237V56.4619H241.487V60.3681H210.237V73.6494H243.049V77.5556H205.549ZM259.299 77.5556V40.0556H263.987V73.6494H293.674V77.5556H259.299ZM314.612 43.1806V77.5556H309.924V40.0556H317.737L339.587 72.8681L361.438 40.0556H368.909V77.5556H364.221V43.6933L341.956 77.5556H337.219L314.612 43.1806ZM411.917 56.4619C414.488 56.4619 416.694 56.5676 418.533 56.7792C420.372 56.9908 421.918 57.3082 423.171 57.7314C424.441 58.1383 425.45 58.651 426.199 59.2695C426.947 59.888 427.525 60.596 427.932 61.3935C428.339 62.1747 428.599 63.0536 428.713 64.0302C428.844 65.0068 428.909 66.0647 428.909 67.204C428.909 68.3434 428.803 69.4176 428.591 70.4267C428.396 71.4195 428.038 72.331 427.517 73.1611C426.996 73.9911 426.288 74.7317 425.393 75.3828C424.498 76.0338 423.359 76.5872 421.975 77.0429C420.592 77.4986 418.923 77.8404 416.97 78.0683C415.033 78.3124 412.763 78.4345 410.159 78.4345H403.909C401.565 78.4345 399.514 78.345 397.756 78.166C395.999 77.9869 394.485 77.7184 393.215 77.3603C391.946 76.9859 390.896 76.5221 390.066 75.9687C389.236 75.399 388.569 74.7398 388.064 73.9911C387.576 73.2262 387.234 72.3635 387.039 71.4033C386.843 70.4267 386.746 69.3525 386.746 68.1806H391.433C391.433 69.6454 391.645 70.7929 392.068 71.623C392.491 72.4531 393.191 73.0797 394.167 73.5029C395.144 73.9098 396.422 74.1702 398 74.2841C399.596 74.3818 401.565 74.4306 403.909 74.4306H410.159C412.893 74.4306 415.164 74.3004 416.97 74.04C418.777 73.7796 420.217 73.3645 421.292 72.7949C422.366 72.2252 423.123 71.4846 423.562 70.5732C424.001 69.6454 424.221 68.5224 424.221 67.204C424.221 65.8857 424.067 64.787 423.757 63.9081C423.464 63.0292 422.87 62.3294 421.975 61.8085C421.096 61.2877 419.851 60.9215 418.24 60.7099C416.628 60.482 414.521 60.3681 411.917 60.3681H405.471C402.607 60.3681 400.149 60.2623 398.098 60.0507C396.064 59.8391 394.355 59.538 392.971 59.1474C391.588 58.7405 390.481 58.2441 389.651 57.6581C388.821 57.0559 388.186 56.3723 387.747 55.6074C387.323 54.8424 387.047 53.996 386.917 53.0683C386.786 52.1243 386.721 51.107 386.721 50.0165C386.721 48.8772 386.819 47.8193 387.014 46.8427C387.226 45.8661 387.608 44.9872 388.162 44.206C388.715 43.4085 389.472 42.7005 390.432 42.082C391.392 41.4635 392.621 40.9508 394.119 40.5439C395.632 40.1207 397.447 39.8033 399.563 39.5917C401.679 39.3801 404.169 39.2744 407.034 39.2744H411.721C414.065 39.2744 416.116 39.3639 417.874 39.5429C419.631 39.7057 421.145 39.9742 422.415 40.3486C423.684 40.7066 424.734 41.1624 425.564 41.7158C426.41 42.2529 427.078 42.9039 427.566 43.6689C428.07 44.4176 428.42 45.2721 428.616 46.2324C428.811 47.1926 428.909 48.2587 428.909 49.4306H424.221C424.221 47.9658 424.01 46.8183 423.586 45.9882C423.163 45.1581 422.463 44.5397 421.487 44.1328C420.51 43.7096 419.224 43.4492 417.629 43.3515C416.034 43.2376 414.065 43.1806 411.721 43.1806H407.034C403.909 43.1806 401.337 43.2945 399.319 43.5224C397.301 43.734 395.706 44.1002 394.534 44.621C393.362 45.1419 392.548 45.8417 392.092 46.7206C391.637 47.5995 391.409 48.6982 391.409 50.0165C391.409 50.8303 391.466 51.5546 391.58 52.1894C391.694 52.8242 391.921 53.3857 392.263 53.874C392.621 54.346 393.118 54.7447 393.752 55.0703C394.387 55.3958 395.225 55.6643 396.267 55.8759C397.309 56.0875 398.578 56.2421 400.076 56.3398C401.589 56.4212 403.388 56.4619 405.471 56.4619H411.917ZM485.784 40.0556H490.471V77.5556H485.784V60.3681H451.409V77.5556H446.721V40.0556H451.409V56.4619H485.784V40.0556ZM546.565 68.9619H516.877L512.19 77.5556H506.721L528.596 40.0556H534.846L556.721 77.5556H551.252L546.565 68.9619ZM544.221 65.0556L531.721 43.1806L519.221 65.0556H544.221ZM615.94 77.5556H611.252V70.5244C611.252 69.385 611.228 68.4085 611.179 67.5947C611.147 66.7646 611.008 66.0566 610.764 65.4706C610.536 64.8847 610.17 64.4127 609.666 64.0546C609.161 63.6966 608.445 63.4199 607.517 63.2245C606.589 63.0292 605.409 62.899 603.977 62.8339C602.561 62.7525 600.811 62.7119 598.728 62.7119H577.659V77.5556H572.971V40.0556H599.509C602.374 40.0556 604.783 40.1614 606.736 40.373C608.705 40.5683 610.325 40.8694 611.594 41.2763C612.88 41.6832 613.865 42.1878 614.548 42.79C615.248 43.3922 615.753 44.1002 616.062 44.914C616.388 45.7278 616.575 46.6393 616.624 47.6484C616.689 48.6575 616.721 49.7724 616.721 50.9931C616.721 52.5556 616.607 53.9309 616.379 55.1191C616.168 56.291 615.802 57.2919 615.281 58.122C614.76 58.9521 614.068 59.6194 613.206 60.124C612.343 60.6122 611.261 60.954 609.958 61.1494C611.261 61.3447 612.302 61.6865 613.083 62.1747C613.865 62.663 614.467 63.2978 614.89 64.079C615.313 64.8603 615.59 65.788 615.72 66.8622C615.867 67.9365 615.94 69.1572 615.94 70.5244V77.5556ZM577.659 58.8056H599.509C601.593 58.8056 603.342 58.7731 604.758 58.7079C606.191 58.6266 607.371 58.4882 608.298 58.2929C609.226 58.0976 609.942 57.8209 610.447 57.4628C610.951 57.1048 611.318 56.6328 611.545 56.0468C611.79 55.4609 611.928 54.761 611.96 53.9472C612.009 53.1171 612.034 52.1324 612.034 50.9931C612.034 49.9352 612.009 49.0237 611.96 48.2587C611.928 47.4938 611.79 46.8509 611.545 46.33C611.318 45.8092 610.951 45.3941 610.447 45.0849C609.942 44.7757 609.226 44.5397 608.298 44.3769C607.371 44.1979 606.191 44.0839 604.758 44.0351C603.342 43.9863 601.593 43.9619 599.509 43.9619H577.659V58.8056ZM634.534 77.5556V40.0556H672.034V43.9619H639.221V56.4619H670.471V60.3681H639.221V73.6494H672.034V77.5556H634.534Z" fill="#091A38"/>
<path fill-rule="evenodd" clip-rule="evenodd" d="M59.9042 15.6046C62.7025 14.3251 64.6468 11.5013 64.6468 8.22327C64.6468 3.7431 61.0149 0.111206 56.5347 0.111206C52.0545 0.111206 48.4226 3.7431 48.4226 8.22327C48.4226 11.5013 50.367 14.3252 53.1653 15.6046V18.1792C44.604 18.8733 36.7838 22.1893 30.5087 27.3232C29.9643 27.1809 29.4299 27.1062 28.9194 27.1022C28.914 25.1712 27.9213 22.8924 26.0812 21.0093C23.1148 17.9736 19.0695 17.1159 17.0457 19.0935C15.0219 21.0711 15.7861 25.1351 18.7524 28.1708C20.6247 30.0868 22.9268 31.1352 24.8791 31.1506C24.8805 31.642 24.9458 32.1559 25.0727 32.6801C19.8194 38.9124 16.3841 46.7274 15.5844 55.3076C15.2208 55.5445 14.8927 55.8058 14.6061 56.0875C13.2377 54.7251 10.925 53.8142 8.29232 53.7822C4.04826 53.7305 0.579858 55.9823 0.545424 58.8116C0.510991 61.641 3.92357 63.9766 8.16762 64.0282C10.8463 64.0608 13.216 63.1758 14.6083 61.8072C14.8835 62.0812 15.197 62.337 15.5435 62.571C16.2607 71.3395 19.7282 79.3294 25.082 85.6763C25.0165 86.0358 24.9818 86.3887 24.9789 86.7309C23.0478 86.7352 20.7684 87.7264 18.8842 89.5653C15.8467 92.5298 14.9864 96.5746 16.9627 98.5996C18.939 100.625 23.0036 99.863 26.0411 96.8986C27.9582 95.0275 29.0081 92.7261 29.0248 90.7738C29.371 90.7731 29.7283 90.7406 30.0925 90.6772C36.2578 95.8572 43.9656 99.2608 52.4276 100.1C52.7736 100.818 53.2013 101.441 53.691 101.939C52.3286 103.307 51.4178 105.62 51.3857 108.253C51.334 112.497 53.5858 115.965 56.4152 116C59.2446 116.034 61.5801 112.622 61.6318 108.378C61.6644 105.699 60.7794 103.329 59.4107 101.937C59.9074 101.438 60.3441 100.814 60.7 100.094C69.2412 99.2349 77.0115 95.7627 83.1993 90.4889C83.6941 90.6078 84.1796 90.6703 84.6452 90.674C84.6506 92.605 85.6433 94.8838 87.4834 96.7669C90.4498 99.8025 94.4951 100.66 96.5189 98.6827C98.5427 96.7051 97.7785 92.641 94.8122 89.6054C92.9399 87.6894 90.6379 86.641 88.6855 86.6255C88.6841 86.127 88.6169 85.6054 88.4864 85.0734C93.5206 78.8706 96.7851 71.1732 97.5109 62.7501C98.0653 62.4444 98.5533 62.087 98.9586 61.6886C100.327 63.0511 102.64 63.9619 105.272 63.994C109.516 64.0456 112.985 61.7938 113.019 58.9645C113.054 56.1351 109.641 53.7996 105.397 53.7479C102.718 53.7153 100.349 54.6003 98.9565 55.969C98.5346 55.5489 98.0229 55.1718 97.4399 54.8501C96.5775 46.5932 93.2722 39.063 88.2596 32.9952C88.4699 32.3265 88.5804 31.6681 88.5857 31.0452C90.5168 31.041 92.7962 30.0497 94.6804 28.2108C97.7179 25.2463 98.5782 21.2016 96.6019 19.1765C94.6256 17.1515 90.5611 17.9131 87.5235 20.8776C85.6064 22.7486 84.5565 25.05 84.5398 27.0023C83.9072 27.0037 83.2373 27.111 82.556 27.3194C76.2817 22.1877 68.4633 18.8732 59.9042 18.1792V15.6046ZM56.5347 87.7784C72.3332 87.7784 85.1404 74.9712 85.1404 59.1727C85.1404 43.3742 72.3332 30.567 56.5347 30.567C40.7362 30.567 27.929 43.3742 27.929 59.1727C27.929 74.9712 40.7362 87.7784 56.5347 87.7784Z" fill="black"/>
<path fill-rule="evenodd" clip-rule="evenodd" d="M82.7011 62.1824C82.2344 65.8944 80.9875 69.4507 79.0583 72.6236C78.8082 73.035 78.5466 73.4399 78.2738 73.8378C77.8451 74.4631 77.3887 75.0713 76.9053 75.6604L65.075 65.9529C63.0775 68.4655 59.9944 70.0765 56.5351 70.0765C50.5131 70.0765 45.6313 65.1947 45.6313 59.1727C45.6313 53.1507 50.5131 48.2689 56.5351 48.2689C56.5439 48.2689 56.5526 48.2689 56.5614 48.2689L56.7145 32.4348C57.4159 32.4416 58.1151 32.4763 58.8104 32.5384C58.8705 32.5437 58.9305 32.5493 58.9905 32.555C63.1755 32.9575 67.2161 34.3533 70.7702 36.64C74.9652 39.3392 78.3113 43.1696 80.4224 47.6892C82.5335 52.2087 83.3235 57.2331 82.7011 62.1824ZM61.177 59.1727C61.177 61.7363 59.0987 63.8145 56.5351 63.8145C53.9715 63.8145 51.8933 61.7363 51.8933 59.1727C51.8933 56.6091 53.9715 54.5309 56.5351 54.5309C59.0987 54.5309 61.177 56.6091 61.177 59.1727Z" fill="#E8A017"/>
</svg>
